<?xml version="1.0" standalone="no"?>
<!DOCTYPE svg PUBLIC "-//W3C//DTD SVG 20010904//EN"
 "http://www.w3.org/TR/2001/REC-SVG-20010904/DTD/svg10.dtd">
<svg version="1.0" xmlns="http://www.w3.org/2000/svg"
 width="235.000000pt" height="214.000000pt" viewBox="0 0 235.000000 214.000000"
 preserveAspectRatio="xMidYMid meet">
<metadata>
Created by potrace 1.15, written by Peter Selinger 2001-2017
</metadata>
<g transform="translate(0.000000,214.000000) scale(0.100000,-0.100000)"
fill="#000000" stroke="none">
<path d="M945 2129 c-333 -11 -473 -48 -562 -149 -67 -75 -89 -257 -59 -499 9
-74 15 -135 14 -136 -2 -1 -19 -11 -39 -23 -50 -30 -243 -231 -267 -278 -11
-22 -23 -61 -27 -87 -13 -87 40 -175 114 -192 26 -5 31 -13 41 -58 7 -29 16
-122 20 -207 5 -101 12 -167 22 -191 23 -52 62 -79 116 -79 l45 0 -6 -44 c-4
-24 -18 -70 -32 -101 -14 -32 -25 -61 -25 -65 0 -14 101 -21 136 -10 46 15 91
80 106 152 l12 58 496 0 c273 0 551 3 618 7 l121 6 7 -51 c9 -71 56 -150 101
-168 48 -20 147 -10 140 15 -3 9 -17 48 -31 86 -37 100 -35 109 21 126 82 25
86 36 99 292 6 122 12 223 13 225 0 1 11 2 22 2 78 0 158 63 179 141 15 53 5
125 -23 172 -12 20 -36 61 -54 91 -33 55 -139 171 -182 197 l-24 15 18 136
c19 151 17 354 -6 421 -20 60 -76 115 -139 136 -69 24 -223 47 -405 61 -152
11 -243 11 -580 -1z"/>
</g>
</svg>
